<svg xmlns:xlink="http://www.w3.org/1999/xlink" xmlns="http://www.w3.org/2000/svg" viewBox="0 0 289.8 83.24330584858401" preserveAspectRatio="xMidYMid meet" class="css-1cs2450" id="bhgecaab" width="289.8"  height="83.24330584858401" ><defs id="SvgjsDefs4485"><linearGradient id="SvgjsLinearGradient4490"><stop id="SvgjsStop4491" stop-color="#00ff8f" offset="0"></stop><stop id="SvgjsStop4492" stop-color="#00a1ff" offset="1"></stop></linearGradient><linearGradient id="SvgjsLinearGradient4493"><stop id="SvgjsStop4494" stop-color="#00ff8f" offset="0"></stop><stop id="SvgjsStop4495" stop-color="#00a1ff" offset="1"></stop></linearGradient><linearGradient id="SvgjsLinearGradient4490"><stop id="SvgjsStop4491" stop-color="#00ff8f" offset="0"></stop><stop id="SvgjsStop4492" stop-color="#00a1ff" offset="1"></stop></linearGradient><linearGradient id="SvgjsLinearGradient4490"><stop id="SvgjsStop4491" stop-color="#00ff8f" offset="0"></stop><stop id="SvgjsStop4492" stop-color="#00a1ff" offset="1"></stop></linearGradient><linearGradient id="SvgjsLinearGradient4493"><stop id="SvgjsStop4494" stop-color="#00ff8f" offset="0"></stop><stop id="SvgjsStop4495" stop-color="#00a1ff" offset="1"></stop></linearGradient><linearGradient id="SvgjsLinearGradient4493"><stop id="SvgjsStop4494" stop-color="#00ff8f" offset="0"></stop><stop id="SvgjsStop4495" stop-color="#00a1ff" offset="1"></stop></linearGradient></defs><g id="SvgjsG4486" featurekey="8Dqhwx-0" transform="matrix(0.8387151032049289,0,0,0.8387151032049289,0,0)" fill="url(&quot;#SvgjsLinearGradient4490&quot;)"><path xmlns="http://www.w3.org/2000/svg" fill="url(&quot;#SvgjsLinearGradient4490&quot;)" d="M82.922,21.242l-1.845,0.292l1.842-0.299c-0.185-0.819-0.499-0.981-0.631-1.142  c-0.556-0.439-0.726-0.444-1.132-0.644c-2.512-1.073-10.468-3.768-18.18-7.621c-4.876-2.44-9.714-5.29-13.44-7.55  c-1.867-1.126-3.456-2.113-4.653-2.831c-0.604-0.36-1.101-0.652-1.517-0.875c-0.358-0.17-0.497-0.297-0.883-0.421  C42.245,0.048,41.989,0,41.728,0c-0.259,0-0.515,0.048-0.756,0.149c-0.385,0.125-0.522,0.251-0.88,0.421  c-2.747,1.497-11.038,6.972-19.607,11.256c-4.531,2.263-9.194,4.146-12.743,5.515c-1.778,0.685-3.265,1.238-4.346,1.667  c-0.545,0.21-0.979,0.388-1.334,0.548c-0.178,0.081-0.335,0.155-0.528,0.269c-0.094,0.061-0.198,0.124-0.36,0.269  c-0.137,0.16-0.457,0.325-0.634,1.147C0.167,23.525,0,25.849,0,28.21c0.025,16.183,7.936,33.688,16.901,47.296  c4.493,6.799,9.26,12.61,13.53,16.784c2.144,2.082,4.153,3.765,5.995,4.97c1.857,1.177,3.503,1.964,5.277,1.991h0.025h0.033  c3.465-0.147,6.989-2.823,11.353-6.951c12.778-12.524,30.255-39.802,30.347-64.05C83.46,25.876,83.284,23.535,82.922,21.242z   M63.517,73.459c-4.346,6.594-8.976,12.233-13.012,16.16c-3.95,3.966-7.677,6.043-8.745,5.891v0.011h-0.058V95.51  c-0.447,0.033-1.708-0.373-3.237-1.393C32.98,90.594,24.085,80.623,16.82,68.322C9.508,56.01,3.722,41.289,3.739,28.21  c0-1.859,0.117-3.681,0.355-5.462c2.504-1.022,10.462-3.78,18.062-7.58c5.028-2.517,9.94-5.412,13.707-7.689  c1.88-1.142,3.476-2.128,4.638-2.821c0.497-0.302,0.916-0.548,1.23-0.723c2.521,1.403,10.975,6.936,19.572,11.234  c4.701,2.352,9.471,4.28,13.062,5.667c1.799,0.69,3.304,1.25,4.336,1.654c0.248,0.094,0.469,0.185,0.657,0.259  c0.243,1.796,0.354,3.63,0.354,5.502C79.746,43.201,72.221,60.277,63.517,73.459z M59.344,18.04  c-8.55-4.27-16.825-9.917-17.596-10.019V8.014c-0.005,0-0.015,0-0.015,0c-0.002,0-0.015,0-0.015,0v0.007  c-0.776,0.102-9.049,5.749-17.596,10.019c-7.976,3.988-16.282,6.573-16.343,6.938c-1.827,11.416,2.494,24.682,8.666,36.329  l43.15-43.143C59.511,18.124,59.428,18.086,59.344,18.04z M72.597,23.677L23.441,72.835C30.9,83.67,38.759,91.24,41.707,91.24  c0.008,0,0.015,0,0.025,0c0.008,0,0.015,0,0.023,0c6.608,0,38.366-38.589,33.928-66.262C75.661,24.844,74.484,24.393,72.597,23.677z  "></path></g><g id="SvgjsG4487" featurekey="7nIRDC-0" transform="matrix(1.6105108766521488,0,0,1.6105108766521488,89.83894906592506,21.30324188043954)" fill="url(&quot;#SvgjsLinearGradient4493&quot;)"><path d="M12.5 20 l-2.78 0 l-0.8 -2.3 l-5.34 0 l-0.8 2.3 l-2.68 0 l5.06 -14 l2.3 0 z M6.28 10 l-0.04 0 l-1.9 5.46 l3.82 0 z M13.9 16.240000000000002 l0 -6.84 l2.6 0 l0 6.56 c0 1.34 0.48 1.84 1.6 1.84 c1.26 0 2.1 -0.62 2.1 -2.04 l0 -6.36 l2.6 0 l0 10.6 l-2.48 0 l0 -1.02 l-0.04 0 c-0.66 0.88 -1.58 1.32 -2.76 1.32 c-2.46 0 -3.62 -1.58 -3.62 -4.06 z M26.14 16.22 l0 -4.62 l-1.64 0 l0 -2.2 l1.7 0 l0 -2.6 l2.46 0 l0 2.6 l2.68 0 l0 2.2 l-2.64 0 l0 4.38 c0 1.12 0.28 1.52 1.42 1.52 l0.86 0 l0 2.5 l-1.1 0 c-1.42 0 -2.4 -0.3 -2.94 -0.9 s-0.8 -1.56 -0.8 -2.88 z M35.94 20 l-2.6 0 l0 -14.6 l2.6 0 l0 5.02 l0.04 0 c0.42 -0.7 1.54 -1.32 2.58 -1.32 c2.26 0 3.7 1.5 3.7 3.84 l0 7.06 l-2.6 0 l0 -6.48 c0 -1.18 -0.62 -2.02 -1.88 -2.02 c-1.2 0 -1.84 0.74 -1.84 1.84 l0 6.66 z M47.46 17.12 c0.42 0.56 1.02 0.84 1.76 0.84 s1.34 -0.28 1.76 -0.84 c0.42 -0.58 0.64 -1.38 0.64 -2.42 s-0.22 -1.84 -0.66 -2.4 c-0.42 -0.58 -1 -0.86 -1.74 -0.86 s-1.32 0.28 -1.76 0.84 c-0.42 0.56 -0.64 1.36 -0.64 2.42 s0.22 1.86 0.64 2.42 z M44.260000000000005 14.7 c0 -1.74 0.48 -3.1 1.44 -4.1 s2.14 -1.5 3.52 -1.5 s2.56 0.5 3.52 1.5 s1.44 2.36 1.44 4.1 c0 1.76 -0.46 3.14 -1.4 4.12 s-2.12 1.48 -3.56 1.48 s-2.62 -0.5 -3.56 -1.48 s-1.4 -2.36 -1.4 -4.12 z M58.88 20 l-2.6 0 l0 -10.6 l2.46 0 l0 1.12 l0.04 0 c0.4 -0.8 1.24 -1.32 2.18 -1.32 c0.34 0 0.66 0.06 0.96 0.2 l-0.4 2.52 c-0.3 -0.1 -0.56 -0.16 -0.82 -0.16 c-1.22 0 -1.82 0.8 -1.82 2.42 l0 5.82 z M66.22 20 l-2.6 0 l0 -10.6 l2.6 0 l0 10.6 z M66.22 7.859999999999999 l-2.6 0 l0 -2.46 l2.6 0 l0 2.46 z M77.58000000000001 20 l-9.16 0 l0 -2.18 l5.64 -5.98 l0 -0.04 l-5.42 0 l0 -2.4 l8.74 0 l0 2.14 l-5.52 5.92 l0 0.04 l5.72 0 l0 2.5 z M88.00000000000001 20 l-2.18 0 l0 -1.02 l-0.04 0 c0 0.02 -0.74 1.32 -2.88 1.32 c-2.56 0 -3.82 -1.38 -3.82 -3.14 c0 -1.84 0.98 -2.66 3.6 -3.3 c1.22 -0.3 1.98 -0.52 2.28 -0.7 s0.46 -0.42 0.46 -0.74 c0 -0.64 -0.6 -1.12 -1.8 -1.12 c-1.42 0 -1.9 0.68 -2.24 1.74 l-2.16 -0.9 c0.5 -1.78 1.98 -3.04 4.36 -3.04 c1.3 0 2.36 0.34 3.18 1.02 s1.24 1.74 1.24 3.16 l0 6.72 z M83.20000000000002 15.66 c-1.34 0.32 -1.62 0.76 -1.62 1.32 c0 0.72 0.52 1.08 1.56 1.08 c1.58 0 2.36 -0.68 2.36 -1.56 l0 -1.84 l-0.04 0 c-0.06 0.1 -0.12 0.2 -0.18 0.26 c-0.1 0.1 -0.8 0.42 -2.08 0.74 z M91.14000000000001 16.22 l0 -4.62 l-1.64 0 l0 -2.2 l1.7 0 l0 -2.6 l2.46 0 l0 2.6 l2.68 0 l0 2.2 l-2.64 0 l0 4.38 c0 1.12 0.28 1.52 1.42 1.52 l0.86 0 l0 2.5 l-1.1 0 c-1.42 0 -2.4 -0.3 -2.94 -0.9 s-0.8 -1.56 -0.8 -2.88 z M100.94000000000001 20 l-2.6 0 l0 -10.6 l2.6 0 l0 10.6 z M100.94000000000001 7.859999999999999 l-2.6 0 l0 -2.46 l2.6 0 l0 2.46 z M106.24000000000002 17.12 c0.42 0.56 1.02 0.84 1.76 0.84 s1.34 -0.28 1.76 -0.84 c0.42 -0.58 0.64 -1.38 0.64 -2.42 s-0.22 -1.84 -0.66 -2.4 c-0.42 -0.58 -1 -0.86 -1.74 -0.86 s-1.32 0.28 -1.76 0.84 c-0.42 0.56 -0.64 1.36 -0.64 2.42 s0.22 1.86 0.64 2.42 z M103.04000000000002 14.7 c0 -1.74 0.48 -3.1 1.44 -4.1 s2.14 -1.5 3.52 -1.5 s2.56 0.5 3.52 1.5 s1.44 2.36 1.44 4.1 c0 1.76 -0.46 3.14 -1.4 4.12 s-2.12 1.48 -3.56 1.48 s-2.62 -0.5 -3.56 -1.48 s-1.4 -2.36 -1.4 -4.12 z M117.66000000000003 20 l-2.6 0 l0 -10.6 l2.5 0 l0 1.02 l0.04 0 c0.58 -0.74 1.68 -1.32 2.8 -1.32 c2.34 0 3.76 1.48 3.76 3.96 l0 6.94 l-2.6 0 l0 -6.3 c0 -1.46 -0.5 -2.2 -1.86 -2.2 c-1.28 0 -2.04 0.8 -2.04 2.02 l0 6.48 z" fill="url(&quot;#SvgjsLinearGradient4493&quot;)"></path></g></svg>